<svg width="30" height="30" viewBox="0 0 30 30" fill="none" xmlns="http://www.w3.org/2000/svg">
<rect width="30" height="30" rx="15" fill="#071C3B"/>
<path d="M25.9056 11.9553C25.9056 11.9553 25.9056 12.9412 25.4812 14.2374L20.7516 9.73305C20.4951 9.48841 20.1471 9.35081 19.7842 9.35051H15.583C15.2769 9.35072 14.9796 9.44867 14.7388 9.62872L13.0804 10.865C12.9666 10.95 12.8363 11.0127 12.697 11.0496C12.5577 11.0866 12.4122 11.097 12.2686 11.0802C12.1251 11.0635 11.9865 11.02 11.8606 10.9522C11.7348 10.8844 11.6242 10.7936 11.5352 10.685C11.3554 10.4655 11.2744 10.187 11.3098 9.9106C11.3452 9.6342 11.4942 9.38246 11.7241 9.21054L17.3829 5H18.604C20.5405 5 22.3977 5.73278 23.767 7.03715C25.1363 8.34151 25.9056 10.1106 25.9056 11.9553ZM7.08947 14.8504C6.99816 14.7632 6.88969 14.694 6.77027 14.6468C6.65085 14.5996 6.52283 14.5753 6.39354 14.5753C6.26425 14.5753 6.13623 14.5996 6.01681 14.6468C5.89739 14.694 5.78892 14.7632 5.69761 14.8504L4.28841 16.198C4.1037 16.3746 4 16.6137 4 16.8631C4 17.1124 4.1037 17.3515 4.28841 17.5281C4.37972 17.6153 4.48819 17.6845 4.60761 17.7317C4.72703 17.7789 4.85505 17.8032 4.98434 17.8032C5.11363 17.8032 5.24165 17.7789 5.36107 17.7317C5.48049 17.6845 5.58896 17.6153 5.68027 17.5281L7.08947 16.1806C7.27412 16.0041 7.3778 15.7651 7.3778 15.5159C7.3778 15.2667 7.27412 15.0277 7.08947 14.8512M8.54613 16.6674C8.6374 16.58 8.74591 16.5106 8.86542 16.4633C8.98493 16.4159 9.11309 16.3916 9.24252 16.3916C9.37196 16.3916 9.50011 16.4159 9.61963 16.4633C9.73914 16.5106 9.84764 16.58 9.93891 16.6674C10.1233 16.844 10.2269 17.083 10.2269 17.3321C10.2269 17.5812 10.1233 17.8202 9.93891 17.9968L8.52788 19.3417C8.43663 19.429 8.32818 19.4983 8.20876 19.5456C8.08933 19.5928 7.96128 19.6172 7.83195 19.6172C7.70263 19.6172 7.57457 19.5928 7.45515 19.5456C7.33572 19.4983 7.22727 19.429 7.13602 19.3417C6.95159 19.1651 6.84807 18.9262 6.84807 18.6771C6.84807 18.428 6.95159 18.189 7.13602 18.0124L8.54613 16.6674ZM12.3037 18.9253C12.2124 18.8381 12.1039 18.7689 11.9845 18.7217C11.8651 18.6745 11.7371 18.6502 11.6078 18.6502C11.4785 18.6502 11.3505 18.6745 11.231 18.7217C11.1116 18.7689 11.0032 18.8381 10.9118 18.9253L9.50264 20.2711C9.31771 20.4476 9.21386 20.6868 9.21386 20.9362C9.21386 21.1856 9.31771 21.4248 9.50264 21.6013C9.59389 21.6886 9.70234 21.7579 9.82177 21.8052C9.94119 21.8524 10.0692 21.8768 10.1986 21.8768C10.3279 21.8768 10.4559 21.8524 10.5754 21.8052C10.6948 21.7579 10.8033 21.6886 10.8945 21.6013L12.3037 20.2546C12.4884 20.078 12.5921 19.8388 12.5921 19.5895C12.5921 19.3402 12.4884 19.1019 12.3037 18.9253ZM14.6676 21.1814C14.5763 21.094 14.4678 21.0246 14.3483 20.9772C14.2288 20.9299 14.1006 20.9055 13.9712 20.9055C13.8418 20.9055 13.7136 20.9299 13.5941 20.9772C13.4746 21.0246 13.3661 21.094 13.2748 21.1814L11.8656 22.5281C11.6812 22.7047 11.5777 22.9437 11.5777 23.1928C11.5777 23.4419 11.6812 23.6808 11.8656 23.8574C11.9569 23.9447 12.0653 24.014 12.1847 24.0613C12.3042 24.1085 12.4322 24.1329 12.5615 24.1329C12.6909 24.1329 12.8189 24.1085 12.9383 24.0613C13.0578 24.014 13.1662 23.9447 13.2575 23.8574L14.6667 22.5107C14.8513 22.3342 14.955 22.0952 14.955 21.8461C14.955 21.5969 14.8513 21.3579 14.6667 21.1814M14.0762 5.25387C13.5954 5.1186 13.1005 5.03405 12.6003 5.00174L12.5182 5H12.2152C10.2787 5 8.42149 5.73278 7.05218 7.03715C5.68287 8.34151 4.9136 10.1106 4.9136 11.9553V13.7697C5.36478 13.42 5.93625 13.2425 6.51709 13.2716C7.09794 13.3007 7.64672 13.5343 8.05693 13.9271C8.41562 14.2705 8.63467 14.6974 8.71316 15.1425C9.05942 15.0669 9.41914 15.067 9.76538 15.1426C10.1116 15.2183 10.4354 15.3676 10.7125 15.5793C10.9896 15.7911 11.2128 16.0598 11.3654 16.3654C11.5179 16.671 11.596 17.0055 11.5936 17.3438C11.905 17.3424 12.2136 17.3999 12.5015 17.5129C12.7894 17.6259 13.051 17.7921 13.271 18.002C13.491 18.2119 13.6651 18.4613 13.7833 18.7357C13.9014 19.0102 13.9613 19.3042 13.9593 19.6008C14.27 19.5994 14.5779 19.6567 14.865 19.7696C15.1522 19.8824 15.413 20.0485 15.6323 20.2581C16.0732 20.6801 16.3207 21.2512 16.3207 21.8465C16.3207 22.4418 16.0732 23.0129 15.6323 23.4349L15.4269 23.6314L16.5897 24.7303C16.7741 24.9031 17.0224 25 17.2811 25C17.5398 25 17.7881 24.9031 17.9725 24.7303C18.3503 24.3739 18.3512 23.7966 17.9743 23.4392C17.8448 23.3169 17.7716 23.1506 17.7708 22.9769C17.7701 22.8032 17.8418 22.6363 17.9702 22.5129C18.0986 22.3895 18.2732 22.3198 18.4556 22.3191C18.6379 22.3183 18.8132 22.3867 18.9427 22.509C19.127 22.6818 19.3753 22.7787 19.634 22.7787C19.8927 22.7787 20.141 22.6818 20.3254 22.509C20.4151 22.4245 20.4864 22.324 20.5351 22.2131C20.5837 22.1023 20.6089 21.9833 20.6089 21.8632C20.609 21.743 20.5841 21.6241 20.5356 21.5131C20.4871 21.4022 20.4159 21.3016 20.3263 21.217C20.205 21.0931 20.1387 20.9293 20.1414 20.7599C20.1441 20.5905 20.2156 20.4286 20.3408 20.3083C20.4661 20.188 20.6354 20.1185 20.8132 20.1145C20.991 20.1105 21.1636 20.1722 21.2947 20.2868C21.4793 20.4591 21.7275 20.5555 21.986 20.5552C22.2444 20.5548 22.4924 20.4578 22.6765 20.285C23.0635 19.9199 23.0617 19.327 22.692 18.9766L22.6893 18.9748L20.633 17.0152C20.5121 16.8916 20.4462 16.7281 20.4494 16.5592C20.4525 16.3902 20.5243 16.2291 20.6497 16.1096C20.7752 15.9901 20.9444 15.9217 21.1217 15.9187C21.299 15.9157 21.4707 15.9784 21.6004 16.0936L24.0063 18.3828C24.4873 18.8375 25.2804 18.8418 25.6975 18.448C26.1128 18.0559 26.1091 17.3117 25.6327 16.8604L25.6309 16.8587L19.5742 11.0902H15.7409L14.2058 12.2343C13.9032 12.4599 13.5569 12.6265 13.1867 12.7245C12.8165 12.8225 12.4296 12.8502 12.0482 12.8058C11.6668 12.7613 11.2983 12.6458 10.9638 12.4657C10.6293 12.2856 10.3353 12.0445 10.0986 11.7562C9.62044 11.1733 9.4047 10.4335 9.49883 9.69929C9.59295 8.96504 9.98924 8.29642 10.6006 7.84035L14.0762 5.25387Z" fill="white"/>
</svg>
