<svg width="30" height="30" viewBox="0 0 30 30" fill="none" xmlns="http://www.w3.org/2000/svg">
<rect width="30" height="30" rx="15" fill="#071C3B"/>
<path d="M15 4C16.7239 4 18.3772 4.68482 19.5962 5.90381C20.8152 7.12279 21.5 8.77609 21.5 10.5C21.5 12.2239 20.8152 13.8772 19.5962 15.0962C18.3772 16.3152 16.7239 17 15 17C13.2761 17 11.6228 16.3152 10.4038 15.0962C9.18482 13.8772 8.5 12.2239 8.5 10.5C8.5 8.77609 9.18482 7.12279 10.4038 5.90381C11.6228 4.68482 13.2761 4 15 4ZM15 20.25C22.1825 20.25 28 23.1588 28 26.75V30H2V26.75C2 23.1588 7.8175 20.25 15 20.25Z" fill="white"/>
</svg>
